<mxfile host="app.diagrams.net" modified="2023-12-17T20:10:22.454Z" agent="Mozilla/5.0 (Macintosh; Intel Mac OS X 10_15_7) AppleWebKit/537.36 (KHTML, like Gecko) Chrome/120.0.0.0 Safari/537.36" etag="hYz8zhuCdIBqoz7t8l9U" version="22.1.11" type="github">
  <diagram name="Page-1" id="vJkltFRjSJLCB8nhmpr-">
    <mxGraphModel dx="2765" dy="1096" grid="1" gridSize="10" guides="1" tooltips="1" connect="1" arrows="1" fold="1" page="1" pageScale="1" pageWidth="827" pageHeight="1169" math="0" shadow="0">
      <root>
        <mxCell id="0" />
        <mxCell id="1" parent="0" />
        <mxCell id="jpJM3D1KCOAAPeH1jnvp-7" value="AWS Cloud" style="sketch=0;outlineConnect=0;gradientColor=none;html=1;whiteSpace=wrap;fontSize=12;fontStyle=0;shape=mxgraph.aws4.group;grIcon=mxgraph.aws4.group_aws_cloud;strokeColor=#AAB7B8;fillColor=none;verticalAlign=top;align=left;spacingLeft=30;fontColor=#AAB7B8;dashed=0;movable=1;resizable=1;rotatable=1;deletable=1;editable=1;locked=0;connectable=1;" vertex="1" parent="1">
          <mxGeometry x="130" y="50" width="1730" height="850" as="geometry" />
        </mxCell>
        <mxCell id="jpJM3D1KCOAAPeH1jnvp-1" value="Cliente" style="shape=umlActor;verticalLabelPosition=bottom;verticalAlign=top;html=1;outlineConnect=0;" vertex="1" parent="1">
          <mxGeometry x="30" y="460" width="30" height="60" as="geometry" />
        </mxCell>
        <mxCell id="jpJM3D1KCOAAPeH1jnvp-4" value="CloudFront" style="sketch=0;points=[[0,0,0],[0.25,0,0],[0.5,0,0],[0.75,0,0],[1,0,0],[0,1,0],[0.25,1,0],[0.5,1,0],[0.75,1,0],[1,1,0],[0,0.25,0],[0,0.5,0],[0,0.75,0],[1,0.25,0],[1,0.5,0],[1,0.75,0]];outlineConnect=0;fontColor=#232F3E;fillColor=#8C4FFF;strokeColor=#ffffff;dashed=0;verticalLabelPosition=bottom;verticalAlign=top;align=center;html=1;fontSize=12;fontStyle=0;aspect=fixed;shape=mxgraph.aws4.resourceIcon;resIcon=mxgraph.aws4.cloudfront;" vertex="1" parent="1">
          <mxGeometry x="150" y="208" width="78" height="78" as="geometry" />
        </mxCell>
        <mxCell id="jpJM3D1KCOAAPeH1jnvp-5" style="edgeStyle=orthogonalEdgeStyle;rounded=0;orthogonalLoop=1;jettySize=auto;html=1;exitX=0.5;exitY=0;exitDx=0;exitDy=0;exitPerimeter=0;entryX=0;entryY=0.5;entryDx=0;entryDy=0;entryPerimeter=0;" edge="1" parent="1" source="jpJM3D1KCOAAPeH1jnvp-1" target="jpJM3D1KCOAAPeH1jnvp-4">
          <mxGeometry relative="1" as="geometry" />
        </mxCell>
        <mxCell id="jpJM3D1KCOAAPeH1jnvp-6" value="Conteudo Estatico" style="edgeLabel;html=1;align=center;verticalAlign=middle;resizable=0;points=[];" vertex="1" connectable="0" parent="jpJM3D1KCOAAPeH1jnvp-5">
          <mxGeometry x="0.2422" relative="1" as="geometry">
            <mxPoint as="offset" />
          </mxGeometry>
        </mxCell>
        <mxCell id="jpJM3D1KCOAAPeH1jnvp-8" value="S3" style="sketch=0;points=[[0,0,0],[0.25,0,0],[0.5,0,0],[0.75,0,0],[1,0,0],[0,1,0],[0.25,1,0],[0.5,1,0],[0.75,1,0],[1,1,0],[0,0.25,0],[0,0.5,0],[0,0.75,0],[1,0.25,0],[1,0.5,0],[1,0.75,0]];outlineConnect=0;fontColor=#232F3E;fillColor=#7AA116;strokeColor=#ffffff;dashed=0;verticalLabelPosition=bottom;verticalAlign=top;align=center;html=1;fontSize=12;fontStyle=0;aspect=fixed;shape=mxgraph.aws4.resourceIcon;resIcon=mxgraph.aws4.s3;" vertex="1" parent="1">
          <mxGeometry x="170" y="78" width="78" height="78" as="geometry" />
        </mxCell>
        <mxCell id="jpJM3D1KCOAAPeH1jnvp-10" value="Region" style="sketch=0;outlineConnect=0;gradientColor=none;html=1;whiteSpace=wrap;fontSize=12;fontStyle=0;shape=mxgraph.aws4.group;grIcon=mxgraph.aws4.group_region;strokeColor=#879196;fillColor=none;verticalAlign=top;align=left;spacingLeft=30;fontColor=#879196;dashed=1;" vertex="1" parent="1">
          <mxGeometry x="390" y="78" width="1430" height="802" as="geometry" />
        </mxCell>
        <mxCell id="jpJM3D1KCOAAPeH1jnvp-13" value="VPC" style="points=[[0,0],[0.25,0],[0.5,0],[0.75,0],[1,0],[1,0.25],[1,0.5],[1,0.75],[1,1],[0.75,1],[0.5,1],[0.25,1],[0,1],[0,0.75],[0,0.5],[0,0.25]];outlineConnect=0;gradientColor=none;html=1;whiteSpace=wrap;fontSize=12;fontStyle=0;container=1;pointerEvents=0;collapsible=0;recursiveResize=0;shape=mxgraph.aws4.group;grIcon=mxgraph.aws4.group_vpc2;strokeColor=#8C4FFF;fillColor=none;verticalAlign=top;align=left;spacingLeft=30;fontColor=#AAB7B8;dashed=0;" vertex="1" parent="1">
          <mxGeometry x="440" y="130" width="1360" height="600" as="geometry" />
        </mxCell>
        <mxCell id="jpJM3D1KCOAAPeH1jnvp-16" value="Availability zone" style="sketch=0;outlineConnect=0;gradientColor=none;html=1;whiteSpace=wrap;fontSize=12;fontStyle=0;shape=mxgraph.aws4.group;grIcon=mxgraph.aws4.group_availability_zone;strokeColor=#545B64;fillColor=none;verticalAlign=top;align=left;spacingLeft=30;fontColor=#545B64;dashed=1;" vertex="1" parent="jpJM3D1KCOAAPeH1jnvp-13">
          <mxGeometry x="40" y="35" width="1080" height="470" as="geometry" />
        </mxCell>
        <mxCell id="jpJM3D1KCOAAPeH1jnvp-18" value="Public subnet" style="points=[[0,0],[0.25,0],[0.5,0],[0.75,0],[1,0],[1,0.25],[1,0.5],[1,0.75],[1,1],[0.75,1],[0.5,1],[0.25,1],[0,1],[0,0.75],[0,0.5],[0,0.25]];outlineConnect=0;gradientColor=none;html=1;whiteSpace=wrap;fontSize=12;fontStyle=0;container=1;pointerEvents=0;collapsible=0;recursiveResize=0;shape=mxgraph.aws4.group;grIcon=mxgraph.aws4.group_security_group;grStroke=0;strokeColor=#7AA116;fillColor=#F2F6E8;verticalAlign=top;align=left;spacingLeft=30;fontColor=#248814;dashed=0;" vertex="1" parent="jpJM3D1KCOAAPeH1jnvp-13">
          <mxGeometry x="170" y="70" width="217" height="520" as="geometry" />
        </mxCell>
        <mxCell id="jpJM3D1KCOAAPeH1jnvp-19" value="Security Group" style="fontStyle=0;verticalAlign=top;align=center;spacingTop=-2;fillColor=none;rounded=0;whiteSpace=wrap;html=1;strokeColor=#FF0000;strokeWidth=2;dashed=1;container=1;collapsible=0;expand=0;recursiveResize=0;" vertex="1" parent="jpJM3D1KCOAAPeH1jnvp-18">
          <mxGeometry x="20" y="40" width="173" height="470" as="geometry" />
        </mxCell>
        <mxCell id="jpJM3D1KCOAAPeH1jnvp-20" value="Applicaton Load Balancer" style="outlineConnect=0;dashed=0;verticalLabelPosition=bottom;verticalAlign=top;align=center;html=1;shape=mxgraph.aws3.application_load_balancer;fillColor=#F58534;gradientColor=none;" vertex="1" parent="jpJM3D1KCOAAPeH1jnvp-19">
          <mxGeometry x="43" y="50" width="69" height="72" as="geometry" />
        </mxCell>
        <mxCell id="jpJM3D1KCOAAPeH1jnvp-41" value="Api Gateway" style="outlineConnect=0;dashed=0;verticalLabelPosition=bottom;verticalAlign=top;align=center;html=1;shape=mxgraph.aws3.api_gateway;fillColor=#D9A741;gradientColor=none;" vertex="1" parent="jpJM3D1KCOAAPeH1jnvp-19">
          <mxGeometry x="20" y="187" width="76.5" height="93" as="geometry" />
        </mxCell>
        <mxCell id="jpJM3D1KCOAAPeH1jnvp-26" value="Private subnet" style="points=[[0,0],[0.25,0],[0.5,0],[0.75,0],[1,0],[1,0.25],[1,0.5],[1,0.75],[1,1],[0.75,1],[0.5,1],[0.25,1],[0,1],[0,0.75],[0,0.5],[0,0.25]];outlineConnect=0;gradientColor=none;html=1;whiteSpace=wrap;fontSize=12;fontStyle=0;container=1;pointerEvents=0;collapsible=0;recursiveResize=0;shape=mxgraph.aws4.group;grIcon=mxgraph.aws4.group_security_group;grStroke=0;strokeColor=#00A4A6;fillColor=#E6F6F7;verticalAlign=top;align=left;spacingLeft=30;fontColor=#147EBA;dashed=0;" vertex="1" parent="jpJM3D1KCOAAPeH1jnvp-13">
          <mxGeometry x="630" y="50" width="310" height="410" as="geometry" />
        </mxCell>
        <mxCell id="jpJM3D1KCOAAPeH1jnvp-35" style="edgeStyle=orthogonalEdgeStyle;rounded=0;orthogonalLoop=1;jettySize=auto;html=1;exitX=0.855;exitY=0.145;exitDx=0;exitDy=0;exitPerimeter=0;entryX=0;entryY=0.5;entryDx=0;entryDy=0;entryPerimeter=0;" edge="1" parent="jpJM3D1KCOAAPeH1jnvp-13" source="jpJM3D1KCOAAPeH1jnvp-20" target="jpJM3D1KCOAAPeH1jnvp-38">
          <mxGeometry relative="1" as="geometry">
            <mxPoint x="570" y="280" as="targetPoint" />
          </mxGeometry>
        </mxCell>
        <mxCell id="jpJM3D1KCOAAPeH1jnvp-43" style="edgeStyle=orthogonalEdgeStyle;rounded=0;orthogonalLoop=1;jettySize=auto;html=1;exitX=1;exitY=0.5;exitDx=0;exitDy=0;exitPerimeter=0;" edge="1" parent="jpJM3D1KCOAAPeH1jnvp-13" source="jpJM3D1KCOAAPeH1jnvp-39" target="jpJM3D1KCOAAPeH1jnvp-40">
          <mxGeometry relative="1" as="geometry" />
        </mxCell>
        <mxCell id="jpJM3D1KCOAAPeH1jnvp-39" value="Handler para pesquisa" style="outlineConnect=0;dashed=0;verticalLabelPosition=bottom;verticalAlign=top;align=center;html=1;shape=mxgraph.aws3.lambda_function;fillColor=#F58534;gradientColor=none;" vertex="1" parent="jpJM3D1KCOAAPeH1jnvp-13">
          <mxGeometry x="450" y="270" width="69" height="72" as="geometry" />
        </mxCell>
        <mxCell id="jpJM3D1KCOAAPeH1jnvp-42" style="edgeStyle=orthogonalEdgeStyle;rounded=0;orthogonalLoop=1;jettySize=auto;html=1;entryX=0;entryY=0.5;entryDx=0;entryDy=0;entryPerimeter=0;" edge="1" parent="jpJM3D1KCOAAPeH1jnvp-13" source="jpJM3D1KCOAAPeH1jnvp-41" target="jpJM3D1KCOAAPeH1jnvp-39">
          <mxGeometry relative="1" as="geometry" />
        </mxCell>
        <mxCell id="jpJM3D1KCOAAPeH1jnvp-45" value="Pagamento" style="outlineConnect=0;dashed=0;verticalLabelPosition=bottom;verticalAlign=top;align=center;html=1;shape=mxgraph.aws3.lambda_function;fillColor=#F58534;gradientColor=none;" vertex="1" parent="jpJM3D1KCOAAPeH1jnvp-13">
          <mxGeometry x="1263.75" y="418.5" width="69" height="72" as="geometry" />
        </mxCell>
        <mxCell id="jpJM3D1KCOAAPeH1jnvp-51" value="Queue Pagamento" style="outlineConnect=0;dashed=0;verticalLabelPosition=bottom;verticalAlign=top;align=center;html=1;shape=mxgraph.aws3.sqs;fillColor=#D9A741;gradientColor=none;" vertex="1" parent="jpJM3D1KCOAAPeH1jnvp-13">
          <mxGeometry x="1260" y="284" width="76.5" height="93" as="geometry" />
        </mxCell>
        <mxCell id="jpJM3D1KCOAAPeH1jnvp-27" value="Security Group" style="fontStyle=0;verticalAlign=top;align=center;spacingTop=-2;fillColor=none;rounded=0;whiteSpace=wrap;html=1;strokeColor=#FF0000;strokeWidth=2;dashed=1;container=1;collapsible=0;expand=0;recursiveResize=0;" vertex="1" parent="jpJM3D1KCOAAPeH1jnvp-13">
          <mxGeometry x="690" y="90" width="210" height="360" as="geometry" />
        </mxCell>
        <mxCell id="jpJM3D1KCOAAPeH1jnvp-38" value="Aplicacao" style="sketch=0;points=[[0,0,0],[0.25,0,0],[0.5,0,0],[0.75,0,0],[1,0,0],[0,1,0],[0.25,1,0],[0.5,1,0],[0.75,1,0],[1,1,0],[0,0.25,0],[0,0.5,0],[0,0.75,0],[1,0.25,0],[1,0.5,0],[1,0.75,0]];outlineConnect=0;fontColor=#232F3E;fillColor=#ED7100;strokeColor=#ffffff;dashed=0;verticalLabelPosition=bottom;verticalAlign=top;align=center;html=1;fontSize=12;fontStyle=0;aspect=fixed;shape=mxgraph.aws4.resourceIcon;resIcon=mxgraph.aws4.elastic_beanstalk;" vertex="1" parent="jpJM3D1KCOAAPeH1jnvp-27">
          <mxGeometry x="70" y="80" width="78" height="78" as="geometry" />
        </mxCell>
        <mxCell id="jpJM3D1KCOAAPeH1jnvp-40" value="ElasticSearch Produtos" style="outlineConnect=0;dashed=0;verticalLabelPosition=bottom;verticalAlign=top;align=center;html=1;shape=mxgraph.aws3.elasticsearch_service;fillColor=#F58534;gradientColor=none;" vertex="1" parent="jpJM3D1KCOAAPeH1jnvp-27">
          <mxGeometry x="70" y="200" width="67.5" height="81" as="geometry" />
        </mxCell>
        <mxCell id="jpJM3D1KCOAAPeH1jnvp-57" value="Produtos" style="outlineConnect=0;dashed=0;verticalLabelPosition=bottom;verticalAlign=top;align=center;html=1;shape=mxgraph.aws3.dynamo_db;fillColor=#2E73B8;gradientColor=none;" vertex="1" parent="jpJM3D1KCOAAPeH1jnvp-13">
          <mxGeometry x="957" y="333.5" width="72" height="81" as="geometry" />
        </mxCell>
        <mxCell id="jpJM3D1KCOAAPeH1jnvp-59" value="Private subnet" style="points=[[0,0],[0.25,0],[0.5,0],[0.75,0],[1,0],[1,0.25],[1,0.5],[1,0.75],[1,1],[0.75,1],[0.5,1],[0.25,1],[0,1],[0,0.75],[0,0.5],[0,0.25]];outlineConnect=0;gradientColor=none;html=1;whiteSpace=wrap;fontSize=12;fontStyle=0;container=1;pointerEvents=0;collapsible=0;recursiveResize=0;shape=mxgraph.aws4.group;grIcon=mxgraph.aws4.group_security_group;grStroke=0;strokeColor=#00A4A6;fillColor=#E6F6F7;verticalAlign=top;align=left;spacingLeft=30;fontColor=#147EBA;dashed=0;" vertex="1" parent="jpJM3D1KCOAAPeH1jnvp-13">
          <mxGeometry x="980" y="50" width="130" height="130" as="geometry" />
        </mxCell>
        <mxCell id="jpJM3D1KCOAAPeH1jnvp-56" value="Banco da Aplicacao" style="outlineConnect=0;dashed=0;verticalLabelPosition=bottom;verticalAlign=top;align=center;html=1;shape=mxgraph.aws3.rds;fillColor=#2E73B8;gradientColor=none;" vertex="1" parent="jpJM3D1KCOAAPeH1jnvp-59">
          <mxGeometry x="29" y="28" width="72" height="81" as="geometry" />
        </mxCell>
        <mxCell id="jpJM3D1KCOAAPeH1jnvp-60" style="edgeStyle=orthogonalEdgeStyle;rounded=0;orthogonalLoop=1;jettySize=auto;html=1;exitX=0.5;exitY=0;exitDx=0;exitDy=0;exitPerimeter=0;entryX=0;entryY=0.5;entryDx=0;entryDy=0;entryPerimeter=0;" edge="1" parent="jpJM3D1KCOAAPeH1jnvp-13" source="jpJM3D1KCOAAPeH1jnvp-38" target="jpJM3D1KCOAAPeH1jnvp-56">
          <mxGeometry relative="1" as="geometry" />
        </mxCell>
        <mxCell id="jpJM3D1KCOAAPeH1jnvp-61" style="edgeStyle=orthogonalEdgeStyle;rounded=0;orthogonalLoop=1;jettySize=auto;html=1;entryX=0.5;entryY=0;entryDx=0;entryDy=0;entryPerimeter=0;startArrow=classic;startFill=1;" edge="1" parent="jpJM3D1KCOAAPeH1jnvp-13" target="jpJM3D1KCOAAPeH1jnvp-57">
          <mxGeometry relative="1" as="geometry">
            <mxPoint x="840" y="230" as="sourcePoint" />
          </mxGeometry>
        </mxCell>
        <mxCell id="jpJM3D1KCOAAPeH1jnvp-70" style="edgeStyle=orthogonalEdgeStyle;rounded=0;orthogonalLoop=1;jettySize=auto;html=1;exitX=0.5;exitY=1;exitDx=0;exitDy=0;exitPerimeter=0;entryX=0.5;entryY=0;entryDx=0;entryDy=0;entryPerimeter=0;" edge="1" parent="jpJM3D1KCOAAPeH1jnvp-13" source="jpJM3D1KCOAAPeH1jnvp-51" target="jpJM3D1KCOAAPeH1jnvp-45">
          <mxGeometry relative="1" as="geometry" />
        </mxCell>
        <mxCell id="jpJM3D1KCOAAPeH1jnvp-81" style="edgeStyle=orthogonalEdgeStyle;rounded=0;orthogonalLoop=1;jettySize=auto;html=1;" edge="1" parent="jpJM3D1KCOAAPeH1jnvp-13" source="jpJM3D1KCOAAPeH1jnvp-76" target="jpJM3D1KCOAAPeH1jnvp-56">
          <mxGeometry relative="1" as="geometry">
            <Array as="points">
              <mxPoint x="1045" y="470" />
            </Array>
          </mxGeometry>
        </mxCell>
        <mxCell id="jpJM3D1KCOAAPeH1jnvp-76" value="Finalizaçao do pagamento" style="outlineConnect=0;dashed=0;verticalLabelPosition=bottom;verticalAlign=top;align=center;html=1;shape=mxgraph.aws3.lambda_function;fillColor=#F58534;gradientColor=none;" vertex="1" parent="jpJM3D1KCOAAPeH1jnvp-13">
          <mxGeometry x="450" y="414.5" width="69" height="72" as="geometry" />
        </mxCell>
        <mxCell id="jpJM3D1KCOAAPeH1jnvp-77" style="edgeStyle=orthogonalEdgeStyle;rounded=0;orthogonalLoop=1;jettySize=auto;html=1;exitX=1;exitY=0.8;exitDx=0;exitDy=0;exitPerimeter=0;entryX=0;entryY=0.5;entryDx=0;entryDy=0;entryPerimeter=0;" edge="1" parent="jpJM3D1KCOAAPeH1jnvp-13" source="jpJM3D1KCOAAPeH1jnvp-41" target="jpJM3D1KCOAAPeH1jnvp-76">
          <mxGeometry relative="1" as="geometry" />
        </mxCell>
        <mxCell id="jpJM3D1KCOAAPeH1jnvp-93" value="Autenticação" style="outlineConnect=0;dashed=0;verticalLabelPosition=bottom;verticalAlign=top;align=center;html=1;shape=mxgraph.aws3.cognito;fillColor=#AD688B;gradientColor=none;" vertex="1" parent="jpJM3D1KCOAAPeH1jnvp-13">
          <mxGeometry x="470" y="50" width="76.5" height="93" as="geometry" />
        </mxCell>
        <mxCell id="jpJM3D1KCOAAPeH1jnvp-100" style="edgeStyle=orthogonalEdgeStyle;rounded=0;orthogonalLoop=1;jettySize=auto;html=1;exitX=0;exitY=0.25;exitDx=0;exitDy=0;exitPerimeter=0;entryX=1;entryY=0.5;entryDx=0;entryDy=0;entryPerimeter=0;startArrow=classic;startFill=1;" edge="1" parent="jpJM3D1KCOAAPeH1jnvp-13" source="jpJM3D1KCOAAPeH1jnvp-38" target="jpJM3D1KCOAAPeH1jnvp-93">
          <mxGeometry relative="1" as="geometry" />
        </mxCell>
        <mxCell id="jpJM3D1KCOAAPeH1jnvp-48" value="Gateway de Pagamento" style="html=1;whiteSpace=wrap;strokeColor=none;fillColor=#0079D6;labelPosition=center;verticalLabelPosition=middle;verticalAlign=top;align=center;fontSize=12;outlineConnect=0;spacingTop=-6;fontColor=#FFFFFF;sketch=0;shape=mxgraph.sitemap.payment;" vertex="1" parent="1">
          <mxGeometry x="1910" y="610" width="170" height="80" as="geometry" />
        </mxCell>
        <mxCell id="jpJM3D1KCOAAPeH1jnvp-62" style="edgeStyle=orthogonalEdgeStyle;rounded=0;orthogonalLoop=1;jettySize=auto;html=1;entryX=0;entryY=0.5;entryDx=0;entryDy=0;entryPerimeter=0;" edge="1" parent="1" source="jpJM3D1KCOAAPeH1jnvp-45" target="jpJM3D1KCOAAPeH1jnvp-48">
          <mxGeometry relative="1" as="geometry" />
        </mxCell>
        <mxCell id="jpJM3D1KCOAAPeH1jnvp-73" style="edgeStyle=orthogonalEdgeStyle;rounded=0;orthogonalLoop=1;jettySize=auto;html=1;" edge="1" parent="1" source="jpJM3D1KCOAAPeH1jnvp-63" target="jpJM3D1KCOAAPeH1jnvp-56">
          <mxGeometry relative="1" as="geometry" />
        </mxCell>
        <mxCell id="jpJM3D1KCOAAPeH1jnvp-63" value="Pedidos&lt;br&gt;" style="outlineConnect=0;dashed=0;verticalLabelPosition=bottom;verticalAlign=top;align=center;html=1;shape=mxgraph.aws3.lambda_function;fillColor=#F58534;gradientColor=none;" vertex="1" parent="1">
          <mxGeometry x="1717.5" y="136" width="69" height="72" as="geometry" />
        </mxCell>
        <mxCell id="jpJM3D1KCOAAPeH1jnvp-71" style="edgeStyle=orthogonalEdgeStyle;rounded=0;orthogonalLoop=1;jettySize=auto;html=1;exitX=1;exitY=0.25;exitDx=0;exitDy=0;exitPerimeter=0;entryX=0;entryY=0.48;entryDx=0;entryDy=0;entryPerimeter=0;" edge="1" parent="1" source="jpJM3D1KCOAAPeH1jnvp-38" target="jpJM3D1KCOAAPeH1jnvp-83">
          <mxGeometry relative="1" as="geometry">
            <mxPoint x="1710" y="326.5333333333333" as="targetPoint" />
          </mxGeometry>
        </mxCell>
        <mxCell id="jpJM3D1KCOAAPeH1jnvp-72" style="edgeStyle=orthogonalEdgeStyle;rounded=0;orthogonalLoop=1;jettySize=auto;html=1;exitX=0.5;exitY=0;exitDx=0;exitDy=0;exitPerimeter=0;entryX=0.5;entryY=1;entryDx=0;entryDy=0;entryPerimeter=0;" edge="1" parent="1" source="jpJM3D1KCOAAPeH1jnvp-83" target="jpJM3D1KCOAAPeH1jnvp-63">
          <mxGeometry relative="1" as="geometry">
            <mxPoint x="1748.25" y="280" as="sourcePoint" />
            <Array as="points">
              <mxPoint x="1748" y="280" />
              <mxPoint x="1748" y="244" />
              <mxPoint x="1752" y="244" />
            </Array>
          </mxGeometry>
        </mxCell>
        <mxCell id="jpJM3D1KCOAAPeH1jnvp-74" style="edgeStyle=orthogonalEdgeStyle;rounded=0;orthogonalLoop=1;jettySize=auto;html=1;entryX=0.5;entryY=1;entryDx=0;entryDy=0;entryPerimeter=0;" edge="1" parent="1" source="jpJM3D1KCOAAPeH1jnvp-48" target="jpJM3D1KCOAAPeH1jnvp-41">
          <mxGeometry relative="1" as="geometry" />
        </mxCell>
        <mxCell id="jpJM3D1KCOAAPeH1jnvp-80" style="edgeStyle=orthogonalEdgeStyle;rounded=0;orthogonalLoop=1;jettySize=auto;html=1;entryX=1;entryY=0.5;entryDx=0;entryDy=0;entryPerimeter=0;" edge="1" parent="1" source="jpJM3D1KCOAAPeH1jnvp-63" target="jpJM3D1KCOAAPeH1jnvp-51">
          <mxGeometry relative="1" as="geometry">
            <Array as="points">
              <mxPoint x="1880" y="172" />
              <mxPoint x="1880" y="461" />
            </Array>
          </mxGeometry>
        </mxCell>
        <mxCell id="jpJM3D1KCOAAPeH1jnvp-87" style="edgeStyle=orthogonalEdgeStyle;rounded=0;orthogonalLoop=1;jettySize=auto;html=1;exitX=0;exitY=0.74;exitDx=0;exitDy=0;exitPerimeter=0;" edge="1" parent="1" source="jpJM3D1KCOAAPeH1jnvp-83" target="jpJM3D1KCOAAPeH1jnvp-84">
          <mxGeometry relative="1" as="geometry" />
        </mxCell>
        <mxCell id="jpJM3D1KCOAAPeH1jnvp-83" value="Topico de Pedidos" style="outlineConnect=0;dashed=0;verticalLabelPosition=bottom;verticalAlign=top;align=center;html=1;shape=mxgraph.aws3.sns;fillColor=#D9A741;gradientColor=none;" vertex="1" parent="1">
          <mxGeometry x="1713.75" y="280" width="76.5" height="76.5" as="geometry" />
        </mxCell>
        <mxCell id="jpJM3D1KCOAAPeH1jnvp-84" value="Controle de Estoque" style="outlineConnect=0;dashed=0;verticalLabelPosition=bottom;verticalAlign=top;align=center;html=1;shape=mxgraph.aws3.lambda_function;fillColor=#F58534;gradientColor=none;" vertex="1" parent="1">
          <mxGeometry x="1570" y="350" width="69" height="72" as="geometry" />
        </mxCell>
        <mxCell id="jpJM3D1KCOAAPeH1jnvp-86" style="edgeStyle=orthogonalEdgeStyle;rounded=0;orthogonalLoop=1;jettySize=auto;html=1;entryX=1;entryY=0.5;entryDx=0;entryDy=0;entryPerimeter=0;" edge="1" parent="1" source="jpJM3D1KCOAAPeH1jnvp-84" target="jpJM3D1KCOAAPeH1jnvp-57">
          <mxGeometry relative="1" as="geometry" />
        </mxCell>
        <mxCell id="jpJM3D1KCOAAPeH1jnvp-88" value="CloudWatch" style="sketch=0;points=[[0,0,0],[0.25,0,0],[0.5,0,0],[0.75,0,0],[1,0,0],[0,1,0],[0.25,1,0],[0.5,1,0],[0.75,1,0],[1,1,0],[0,0.25,0],[0,0.5,0],[0,0.75,0],[1,0.25,0],[1,0.5,0],[1,0.75,0]];points=[[0,0,0],[0.25,0,0],[0.5,0,0],[0.75,0,0],[1,0,0],[0,1,0],[0.25,1,0],[0.5,1,0],[0.75,1,0],[1,1,0],[0,0.25,0],[0,0.5,0],[0,0.75,0],[1,0.25,0],[1,0.5,0],[1,0.75,0]];outlineConnect=0;fontColor=#232F3E;fillColor=#E7157B;strokeColor=#ffffff;dashed=0;verticalLabelPosition=bottom;verticalAlign=top;align=center;html=1;fontSize=12;fontStyle=0;aspect=fixed;shape=mxgraph.aws4.resourceIcon;resIcon=mxgraph.aws4.cloudwatch_2;" vertex="1" parent="1">
          <mxGeometry x="1460" y="770" width="78" height="78" as="geometry" />
        </mxCell>
        <mxCell id="jpJM3D1KCOAAPeH1jnvp-89" value="WAF" style="outlineConnect=0;dashed=0;verticalLabelPosition=bottom;verticalAlign=top;align=center;html=1;shape=mxgraph.aws3.waf;fillColor=#759C3E;gradientColor=none;" vertex="1" parent="1">
          <mxGeometry x="313.5" y="280" width="76.5" height="93" as="geometry" />
        </mxCell>
        <mxCell id="jpJM3D1KCOAAPeH1jnvp-90" style="edgeStyle=orthogonalEdgeStyle;rounded=0;orthogonalLoop=1;jettySize=auto;html=1;entryX=0;entryY=0.5;entryDx=0;entryDy=0;entryPerimeter=0;" edge="1" parent="1" source="jpJM3D1KCOAAPeH1jnvp-4" target="jpJM3D1KCOAAPeH1jnvp-8">
          <mxGeometry relative="1" as="geometry" />
        </mxCell>
        <mxCell id="jpJM3D1KCOAAPeH1jnvp-91" style="edgeStyle=orthogonalEdgeStyle;rounded=0;orthogonalLoop=1;jettySize=auto;html=1;entryX=0;entryY=0.56;entryDx=0;entryDy=0;entryPerimeter=0;" edge="1" parent="1" source="jpJM3D1KCOAAPeH1jnvp-1" target="jpJM3D1KCOAAPeH1jnvp-89">
          <mxGeometry relative="1" as="geometry" />
        </mxCell>
        <mxCell id="jpJM3D1KCOAAPeH1jnvp-94" style="edgeStyle=orthogonalEdgeStyle;rounded=0;orthogonalLoop=1;jettySize=auto;html=1;entryX=0;entryY=0.56;entryDx=0;entryDy=0;entryPerimeter=0;" edge="1" parent="1" source="jpJM3D1KCOAAPeH1jnvp-1" target="jpJM3D1KCOAAPeH1jnvp-89">
          <mxGeometry relative="1" as="geometry" />
        </mxCell>
        <mxCell id="jpJM3D1KCOAAPeH1jnvp-95" style="edgeStyle=orthogonalEdgeStyle;rounded=0;orthogonalLoop=1;jettySize=auto;html=1;entryX=0;entryY=0.5;entryDx=0;entryDy=0;entryPerimeter=0;" edge="1" parent="1" source="jpJM3D1KCOAAPeH1jnvp-89" target="jpJM3D1KCOAAPeH1jnvp-20">
          <mxGeometry relative="1" as="geometry" />
        </mxCell>
        <mxCell id="jpJM3D1KCOAAPeH1jnvp-101" style="edgeStyle=orthogonalEdgeStyle;rounded=0;orthogonalLoop=1;jettySize=auto;html=1;entryX=0.35;entryY=0.5;entryDx=0;entryDy=0;entryPerimeter=0;" edge="1" parent="1" source="jpJM3D1KCOAAPeH1jnvp-1" target="jpJM3D1KCOAAPeH1jnvp-41">
          <mxGeometry relative="1" as="geometry" />
        </mxCell>
      </root>
    </mxGraphModel>
  </diagram>
</mxfile>
